HIERARCHY
ROOT ui
{
	 OFFSET 0 0 0
	 CHANNELS 3 XPosition YPosition Z Position
	 EndSite
	 {
	 OFFSET 0 -1 0
	 }
}
ROOT li
{
	 OFFSET 0 0 0
	 CHANNELS 3 XPosition YPosition Z Position
	 EndSite
	 {
	 OFFSET 0 -1 0
	 }
}
ROOT ul
{
	 OFFSET 0 0 0
	 CHANNELS 3 XPosition YPosition Z Position
	 EndSite
	 {
	 OFFSET 0 -1 0
	 }
}
ROOT ll
{
	 OFFSET 0 0 0
	 CHANNELS 3 XPosition YPosition Z Position
	 EndSite
	 {
	 OFFSET 0 -1 0
	 }
}
ROOT tt
{
	 OFFSET 0 0 0
	 CHANNELS 3 XPosition YPosition Z Position
	 EndSite
	 {
	 OFFSET 0 -1 0
	 }
}
ROOT tb
{
	 OFFSET 0 0 0
	 CHANNELS 3 XPosition YPosition Z Position
	 EndSite
	 {
	 OFFSET 0 -1 0
	 }
}
ROOT td
{
	 OFFSET 0 0 0
	 CHANNELS 3 XPosition YPosition Z Position
	 EndSite
	 {
	 OFFSET 0 -1 0
	 }
}
ROOT v
{
	 OFFSET 0 0 0
	 CHANNELS 3 XPosition YPosition Z Position
	 EndSite
	 {
	 OFFSET 0 -1 0
	 }
}
ROOT bn
{
	 OFFSET 0 0 0
	 CHANNELS 3 XPosition YPosition Z Position
	 EndSite
	 {
	 OFFSET 0 -1 0
	 }
}
MOTION
Frames: 16
Frame Time: 0.002
9.53823983669281E-4	0.00566167688369751	0		0.5619735717773438	-2.48452099609375	0		-1.0631943359375	0.16093136596679689	0		-0.5567711791992187	-2.617593505859375	0		2.134447509765625	-1.172009765625	0		3.53770751953125	-0.11641027069091797	0		4.87912939453125	0.14989836120605468	0		5.94747607421875	0.3238435363769531	0		-0.21136961364746093	5.92076611328125	0		
-0.0018822940587997436	0.0016253819465637206	0		0.534405029296875	-2.483202392578125	0		-1.077017578125	0.15894395446777343	0		-0.48947216796875	-2.628541259765625	0		2.1776298828125	-1.1824403076171874	0		3.574002197265625	-0.1106405258178711	0		4.88524365234375	0.1431501922607422	0		5.95182421875	0.3071355590820313	0		-0.2466998291015625	5.9161083984375	0		
-0.005727659225463868	-0.0014044350385665893	0		0.5597418823242187	-2.48854345703125	0		-1.0759503173828124	0.14976271057128906	0		-0.5579562377929688	-2.61981396484375	0		2.159934326171875	-1.181114990234375	0		3.547217041015625	-0.10908720397949219	0		4.88459521484375	0.15749319458007813	0		5.95196630859375	0.30786972045898436	0		-0.21293479919433594	5.92159033203125	0		
-0.005559671878814698	-0.0014882789850234985	0		0.535185302734375	-2.483274169921875	0		-1.075795166015625	0.14958741760253907	0		-0.521603759765625	-2.62338427734375	0		2.19405419921875	-1.1934278564453125	0		3.574380126953125	-0.11019692993164062	0		4.89290771484375	0.17072865295410156	0		5.95209130859375	0.308610595703125	0		-0.2614891357421875	5.90407568359375	0		
0.006607886791229248	2.789660096168518E-4	0		0.53756689453125	-2.481339111328125	0		-1.0656768798828125	0.14828713989257813	0		-0.55111083984375	-2.61315283203125	0		2.190349609375	-1.18927783203125	0		3.58255712890625	-0.10807351684570313	0		4.90202392578125	0.1699534912109375	0		5.9558515625	0.32654470825195314	0		-0.24474465942382811	5.912759765625	0		
0.0017888269424438477	0.005250429153442383	0		0.5658977661132812	-2.481718994140625	0		-1.075556396484375	0.1492272491455078	0		-0.5148053588867187	-2.616721923828125	0		2.25448291015625	-1.196948974609375	0		3.585855224609375	-0.09389280700683594	0		4.9163818359375	0.19111427307128906	0		5.94809716796875	0.32750750732421874	0		-0.2612496948242187	5.90284326171875	0		
-0.001162554979324341	0.0011963800191879272	0		0.5361826171875	-2.48340283203125	0		-1.0795198974609375	0.145093994140625	0		-0.5613524780273438	-2.605294921875	0		2.25163330078125	-1.2008123779296875	0		3.578828857421875	-0.1045952911376953	0		4.91155810546875	0.19949911499023437	0		5.94452783203125	0.3127612609863281	0		-0.2626405029296875	5.90374267578125	0		
0.003861793041229248	-0.002954230070114136	0		0.5624237670898438	-2.486758056640625	0		-1.012559326171875	0.1361182861328125	0		-0.5271255493164062	-2.610836181640625	0		2.249769775390625	-1.20369287109375	0		3.586039794921875	-0.09347332000732422	0		4.9296005859375	0.19860208129882811	0		5.952421875	0.311506103515625	0		-0.24411929321289064	5.898404296875	0		
-0.00507854413986206	-0.0019404029846191407	0		0.5367095336914063	-2.483498779296875	0		-1.0925531005859375	0.1338868408203125	0		-0.5587821044921875	-2.6035947265625	0		2.25194970703125	-1.200626708984375	0		3.609916015625	-0.108556884765625	0		4.929796875	0.2129083251953125	0		5.94516845703125	0.27952215576171874	0		-0.26349029541015623	5.903515625	0		
-0.00102265202999115	9.189220070838928E-4	0		0.53894921875	-2.4815732421875	0		-1.0876016845703125	0.12864939880371093	0		-0.5545097045898437	-2.599779052734375	0		2.274841064453125	-1.2198106689453125	0		3.608203125	-0.08634404754638672	0		4.93695263671875	0.22612030029296876	0		5.95612939453125	0.3300375671386719	0		-0.21376191711425782	5.9178154296875	0		
0.006959219932556152	-2.6752600073814395E-4	0		0.5411548461914063	-2.479649169921875	0		-1.09760498046875	0.12958970642089843	0		-0.552283447265625	-2.59693798828125	0		2.271055908203125	-1.208685546875	0		3.63107421875	-0.09743029022216797	0		4.95183544921875	0.21822779846191406	0		5.95247998046875	0.31346487426757813	0		-0.26339987182617186	5.90227685546875	0		
-0.001062047004699707	7.325490117073059E-4	0		0.5652421264648437	-2.484979736328125	0		-1.0347906494140624	0.11668972015380859	0		-0.5630350341796875	-2.5889443359375	0		2.27498291015625	-1.2196590576171875	0		3.64820849609375	-0.08345696258544921	0		4.9509482421875	0.2325050811767578	0		5.95246044921875	0.3140562744140625	0		-0.2789879150390625	5.8913388671875	0		
-0.005158263206481934	-0.0023129899501800537	0		0.5373643188476562	-2.4837109375	0		-1.114889892578125	0.11444641876220703	0		-0.5629190673828125	-2.58907470703125	0		2.292991943359375	-1.220801025390625	0		3.639072509765625	-0.09019390869140625	0		4.9659609375	0.24058091735839843	0		5.9451328125	0.2819407653808594	0		-0.2463766326904297	5.89784814453125	0		
0.00373819899559021	-0.003505702018737793	0		0.5633966064453125	-2.487062744140625	0		-1.1140804443359376	0.10627410125732421	0		-0.5628439331054688	-2.589200439453125	0		2.2800712890625	-1.212594970703125	0		3.62106787109375	-0.08284391784667969	0		4.96791064453125	0.24578797912597655	0		5.945072265625	0.2824517517089844	0		-0.27992599487304687	5.89112060546875	0		
-0.0013380999565124512	4.647029936313629E-4	0		0.5185960693359375	-2.47160498046875	0		-1.1042210693359376	0.10500766754150391	0		-0.5547100830078125	-2.580411865234375	0		2.310008056640625	-1.21388623046875	0		3.67387890625	-0.08931641387939453	0		4.9818525390625	0.2528382568359375	0		5.96012060546875	0.31537384033203125	0		-0.26329840087890627	5.8998232421875	0		
0.0015531469583511353	0.004348816871643066	0		0.571505615234375	-2.478257568359375	0		-1.037475341796875	0.09610848236083984	0		-0.5506782836914063	-2.5765693359375	0		2.306044921875	-1.2027974853515624	0		3.658979736328125	-0.06702963256835938	0		4.98084326171875	0.2670384216308594	0		5.95581591796875	0.3332142333984375	0		-0.26476220703125	5.90073876953125	0		
